# xmcd
#
# Track frame offsets:
#	150
#	16837
#	34891
#	49633
#	78731
#	92020
#	106139
#	129546
#	146865
#	163985
#	180961
#	197402
#	215416
#	228105
#	243502
#	258163
#
# Disc length: 3703 seconds
# Revision: 0
# Processed by: cddbd v1.5.2PL0 Copyright (c) Steve Scherf et al.
# Submitted via: dBpowerAMP V12.0
#
DISCID=d00e7510
DTITLE=Various Artist - Heartland County Collection Disc 2
DYEAR=1900
DGENRE=Country
TTITLE0=Graeme Connors - A Little Further North
TTITLE1=James Blundell and James Reyne - Way Out West
TTITLE2=Troy Casssar-Dayley Feat. Paul Kelly - Wish I Wass A Train
TTITLE3=Travis Collins - I Am Australian
TTITLE4=The Wilson Pickers - Half A Man
TTITLE5=Wolverines - Proud to be Australian
TTITLE6=John Schumann and the Vagabond Crew - Waltzing maltilda
TTITLE7=Jetty Road - City Lights
TTITLE8=The Wildes - Streets of my Hometown
TTITLE9=Lou Bradley - One Shoe
TTITLE10=The Yeehaa Boys - 8 Ball
TTITLE11=Ronni Rae Rivers - Rodeo Romeo
TTITLE12=Nicki Gillis - Watch the Wildflowers Grow
TTITLE13=Carter and Carter - The Best Things In Life Are Free
TTITLE14=Allan Caswell Feat. Drew McAlister - A Little Bit Of Country In Us All
TTITLE15=Brendon Walmsley - Bottle Tree Lane
EXTD=
EXTT0=
EXTT1=
EXTT2=
EXTT3=
EXTT4=
EXTT5=
EXTT6=
EXTT7=
EXTT8=
EXTT9=
EXTT10=
EXTT11=
EXTT12=
EXTT13=
EXTT14=
EXTT15=
PLAYORDER=
